<?xml version="1.0" encoding="UTF-8" standalone="no"?>
<!DOCTYPE svg PUBLIC "-//W3C//DTD SVG 20010904//EN"
              "http://www.w3.org/TR/2001/REC-SVG-20010904/DTD/svg10.dtd">

<svg xmlns="http://www.w3.org/2000/svg"
     width="6.01389in" height="8.75in"
     viewBox="0 0 433 630">
  <path id="Auswahl1"
        fill="none" stroke="black" stroke-width="1"
        d="M 41.00,225.00
           C 41.00,225.00 50.19,202.00 50.19,202.00
             50.19,202.00 57.95,180.00 57.95,180.00
             57.95,180.00 78.69,120.00 78.69,120.00
             78.69,120.00 94.00,77.00 94.00,77.00
             94.00,77.00 106.34,43.00 106.34,43.00
             108.33,37.39 109.58,32.10 116.00,31.00
             115.97,41.52 113.92,43.34 111.14,53.00
             111.14,53.00 105.02,72.00 105.02,72.00
             105.02,72.00 98.72,94.00 98.72,94.00
             98.72,94.00 88.66,127.00 88.66,127.00
             88.66,127.00 82.44,143.00 82.44,143.00
             75.51,166.17 64.65,206.26 55.00,227.00
             55.00,227.00 80.00,230.00 80.00,230.00
             79.45,232.67 78.84,237.29 75.78,238.22
             69.57,240.09 55.57,228.02 50.45,237.11
             48.16,241.18 49.82,244.91 48.02,249.00
             48.02,249.00 44.52,255.00 44.52,255.00
             43.12,257.74 37.49,271.43 36.99,274.00
             36.99,274.00 36.99,280.00 36.99,280.00
             36.10,291.87 19.80,289.17 20.25,279.00
             20.50,273.48 25.50,273.47 28.20,267.96
             30.96,262.33 37.11,243.29 38.00,237.00
             38.00,237.00 28.00,236.00 28.00,236.00
             28.00,236.00 28.00,231.00 28.00,231.00
             25.51,231.00 19.43,231.39 17.52,229.98
             14.21,227.50 16.58,221.75 20.10,220.78
             22.07,220.24 25.05,221.34 27.00,221.85
             27.00,221.85 41.00,225.00 41.00,225.00 Z" />
  <path id="Auswahl2"
        fill="none" stroke="black" stroke-width="1"
        d="M 362.00,594.00
           C 362.00,594.00 355.00,594.00 355.00,594.00
             346.02,593.99 346.23,592.93 339.00,592.17
             339.00,592.17 303.00,588.42 303.00,588.42
             303.00,588.42 289.00,586.15 289.00,586.15
             287.05,585.90 284.35,585.93 282.99,584.26
             280.36,581.04 281.99,568.38 282.00,564.00
             282.00,564.00 282.00,548.00 282.00,548.00
             281.96,540.67 281.09,539.52 280.06,533.00
             280.06,533.00 280.06,525.00 280.06,525.00
             280.06,525.00 277.94,515.00 277.94,515.00
             277.94,515.00 277.94,504.00 277.94,504.00
             275.33,483.93 273.97,485.12 274.00,463.00
             274.03,445.73 278.64,443.35 280.96,434.00
             282.26,428.73 282.10,423.11 287.10,419.60
             291.24,416.70 297.37,418.60 302.00,418.96
             302.00,418.96 310.00,418.96 310.00,418.96
             316.46,419.12 319.47,420.98 318.82,428.00
             318.41,432.46 316.87,433.92 316.26,437.09
             316.26,437.09 314.00,460.00 314.00,460.00
             314.00,460.00 312.83,488.00 312.83,488.00
             312.83,488.00 309.79,517.00 309.79,517.00
             309.86,529.58 307.78,542.48 309.79,555.00
             310.43,560.92 310.50,565.13 315.19,569.53
             322.06,575.99 331.52,578.38 340.00,581.76
             340.00,581.76 348.00,585.46 348.00,585.46
             353.18,587.50 360.10,588.27 362.00,594.00 Z" />
  <path id="Auswahl3"
        fill="none" stroke="black" stroke-width="1"
        d="M 133.00,232.00
           C 133.00,232.00 142.59,219.00 142.59,219.00
             142.59,219.00 152.87,201.17 152.87,201.17
             152.87,201.17 159.22,193.99 159.22,193.99
             163.40,188.32 164.44,183.51 171.00,179.47
             175.87,176.48 181.68,177.35 187.00,175.83
             187.00,175.83 208.00,167.37 208.00,167.37
             208.00,167.37 222.00,163.60 222.00,163.60
             225.49,162.45 226.88,161.26 231.00,160.47
             243.76,158.00 256.24,160.84 269.00,161.00
             284.37,161.18 285.44,162.08 298.00,170.29
             302.22,173.05 307.81,176.10 309.95,181.00
             309.95,181.00 309.00,202.00 309.00,202.00
             309.00,202.00 304.00,239.00 304.00,239.00
             303.73,262.40 304.29,253.78 306.72,274.00
             307.93,284.09 307.10,284.73 309.80,296.00
             309.80,296.00 315.71,312.00 315.71,312.00
             315.71,312.00 318.17,334.00 318.17,334.00
             319.33,342.05 323.41,350.65 322.82,359.00
             321.31,380.15 323.92,376.13 324.00,393.00
             324.00,393.00 327.89,424.00 327.89,424.00
             327.69,426.41 325.34,434.68 321.53,432.60
             318.88,431.15 321.34,425.61 314.96,422.84
             311.43,421.31 307.69,422.20 304.00,421.83
             298.27,421.24 295.14,418.91 292.00,418.48
             288.44,417.98 286.34,419.60 282.32,419.24
             279.79,419.02 276.14,418.51 273.99,417.25
             272.03,416.10 269.69,413.54 267.58,413.22
             264.44,412.74 261.16,416.40 257.00,416.60
             252.32,416.81 246.04,412.44 240.00,412.11
             234.74,411.81 227.76,414.69 224.74,419.10
             221.65,423.61 223.96,436.26 214.09,429.85
             214.09,429.85 211.44,427.67 211.44,427.67
             204.31,420.59 207.58,412.67 209.34,404.00
             209.34,404.00 213.07,377.42 213.07,377.42
             213.07,377.42 213.07,367.00 213.07,367.00
             213.07,367.00 209.85,367.00 209.85,367.00
             209.85,367.00 209.85,349.83 209.85,349.83
             207.27,342.49 204.02,346.27 203.86,334.00
             203.86,334.00 203.86,315.00 203.86,315.00
             203.86,315.00 203.86,304.00 203.86,304.00
             203.86,304.00 206.00,285.00 206.00,285.00
             206.04,281.17 206.55,269.96 204.98,267.05
             202.79,263.01 198.01,262.07 194.00,260.81
             194.00,260.81 174.09,252.58 174.09,252.58
             165.34,247.83 166.36,241.41 160.95,238.09
             159.61,237.27 144.86,233.34 143.00,233.13
             138.51,232.62 138.08,233.44 133.00,232.00 Z" />
  <path id="Auswahl4"
        fill="none" stroke="black" stroke-width="1"
        d="M 184.00,590.00
           C 192.83,573.32 210.87,575.66 216.08,559.00
             220.54,544.70 219.54,525.97 220.25,511.00
             220.25,511.00 220.25,492.00 220.25,492.00
             220.25,492.00 220.96,482.00 220.96,482.00
             220.96,482.00 220.96,465.00 220.96,465.00
             220.96,465.00 223.73,432.00 223.73,432.00
             224.23,428.47 224.85,422.04 226.45,419.04
             228.51,415.19 232.93,412.93 237.00,411.92
             240.37,410.85 242.69,411.06 246.00,411.92
             256.07,415.04 257.80,420.74 260.13,430.00
             260.69,432.26 261.65,435.76 261.79,438.00
             261.79,438.00 260.99,449.00 260.99,449.00
             260.99,449.00 259.13,462.00 259.13,462.00
             259.13,462.00 253.58,495.00 253.58,495.00
             253.58,495.00 249.21,512.00 249.21,512.00
             249.21,512.00 247.25,526.00 247.25,526.00
             247.25,526.00 242.00,565.00 242.00,565.00
             242.00,565.00 242.00,582.00 242.00,582.00
             237.07,582.00 221.59,579.67 218.59,582.60
             217.26,583.90 216.59,587.17 216.00,589.00
             200.45,587.46 199.94,595.82 184.00,590.00 Z" />
  <path id="Auswahl5"
        fill="none" stroke="black" stroke-width="1"
        d="M 312.00,169.00
           C 319.62,169.20 323.35,172.27 330.00,175.78
             341.85,182.04 353.67,188.39 364.00,196.99
             366.88,199.39 374.54,203.98 375.98,206.32
             378.10,209.77 378.05,220.73 378.00,225.00
             378.00,225.00 376.17,243.00 376.17,243.00
             376.17,243.00 374.00,272.00 374.00,272.00
             374.00,272.00 373.08,282.00 373.08,282.00
             371.59,300.73 367.50,316.70 357.80,333.00
             352.00,342.73 345.85,355.09 335.00,360.00
             329.68,350.61 326.91,340.12 323.31,330.00
             323.31,330.00 318.03,316.00 318.03,316.00
             312.02,297.04 305.97,263.79 306.00,244.00
             306.00,244.00 307.00,224.00 307.00,224.00
             307.00,224.00 309.00,208.00 309.00,208.00
             309.00,208.00 309.00,199.00 309.00,199.00
             309.00,199.00 310.87,190.00 310.87,190.00
             312.27,180.71 312.00,178.14 312.00,169.00 Z" />
</svg>
