<?xml version="1.0" encoding="UTF-8" standalone="no"?>
<!DOCTYPE svg PUBLIC "-//W3C//DTD SVG 20010904//EN"
              "http://www.w3.org/TR/2001/REC-SVG-20010904/DTD/svg10.dtd">

<svg xmlns="http://www.w3.org/2000/svg"
     width="5.36111in" height="8.88889in"
     viewBox="0 0 772 1280">
  <path id="Auswahl"
        fill="none" stroke="black" stroke-width="1"
        d="M 0.00,0.00
           C 0.00,0.00 772.00,0.00 772.00,0.00
             772.00,0.00 772.00,1280.00 772.00,1280.00
             772.00,1280.00 0.00,1280.00 0.00,1280.00
             0.00,1280.00 0.00,0.00 0.00,0.00 Z" />
  <path id="Auswahl #1"
        fill="none" stroke="black" stroke-width="1"
        d="M 452.00,234.00
           C 450.85,242.25 445.96,244.40 440.00,249.26
             434.76,253.53 426.52,261.63 422.63,267.00
             418.50,272.70 416.45,277.76 413.65,284.00
             410.28,291.52 406.29,298.89 404.37,307.00
             401.98,317.13 401.98,331.52 402.00,342.00
             402.01,349.73 402.72,351.62 404.20,359.00
             408.31,379.55 411.77,385.32 419.40,404.00
             422.55,411.71 425.92,423.29 432.04,428.79
             438.76,434.82 446.49,434.97 454.00,438.21
             461.72,441.53 465.75,445.72 472.00,450.61
             475.89,453.66 478.83,454.31 482.83,458.18
             482.83,458.18 508.64,488.00 508.64,488.00
             508.64,488.00 516.31,502.00 516.31,502.00
             532.24,531.65 540.39,562.31 540.00,596.00
             540.00,596.00 539.09,606.00 539.09,606.00
             536.60,642.18 527.66,670.10 506.72,700.00
             499.93,709.69 491.80,719.91 483.00,727.83
             459.90,748.62 441.51,755.89 412.00,762.88
             402.38,765.16 387.76,767.88 378.00,768.00
             340.19,768.44 298.79,749.12 272.00,722.99
             257.70,709.03 244.06,689.41 236.15,671.00
             225.21,645.53 219.68,617.68 220.00,590.00
             220.00,590.00 220.91,580.00 220.91,580.00
             223.14,549.52 234.11,514.86 252.16,490.00
             258.78,480.88 262.34,477.79 269.96,470.01
             278.11,461.70 287.15,453.81 297.00,447.54
             309.21,439.78 327.13,432.86 341.00,428.56
             341.00,428.56 353.00,424.04 353.00,424.04
             355.54,423.37 359.42,422.95 360.97,420.57
             363.14,417.26 359.90,412.38 358.94,409.00
             358.94,409.00 357.14,401.00 357.14,401.00
             357.14,401.00 353.36,375.00 353.36,375.00
             353.36,375.00 354.24,369.00 354.24,369.00
             354.24,369.00 354.24,357.00 354.24,357.00
             354.68,351.41 356.73,345.46 357.78,340.00
             357.78,340.00 360.80,324.00 360.80,324.00
             361.93,320.51 363.28,319.30 364.22,317.00
             365.61,313.62 364.67,311.37 366.31,308.01
             367.94,304.70 370.62,303.26 371.60,301.26
             372.67,299.08 371.42,297.14 373.57,293.00
             375.66,288.98 381.66,282.89 384.63,279.00
             388.51,273.92 388.40,271.63 394.04,266.04
             400.18,259.95 402.47,261.25 408.00,256.79
             412.48,253.18 414.62,250.78 420.00,247.91
             420.00,247.91 427.00,244.54 427.00,244.54
             435.28,239.50 441.79,234.50 452.00,234.00 Z" />
  <path id="Auswahl #3"
        fill="none" stroke="black" stroke-width="1"
        d="M 0.00,1006.00
           C 0.00,1006.00 772.00,1006.00 772.00,1006.00
             772.00,1006.00 772.00,1215.00 772.00,1215.00
             772.00,1215.00 0.00,1215.00 0.00,1215.00
             0.00,1215.00 0.00,1006.00 0.00,1006.00 Z" />
  <path id="Auswahl #2"
        fill="none" stroke="black" stroke-width="1"
        d="M 64.00,664.00
           C 64.00,664.00 709.00,664.00 709.00,664.00
             709.00,664.00 709.00,918.00 709.00,918.00
             709.00,918.00 64.00,918.00 64.00,918.00
             64.00,918.00 64.00,664.00 64.00,664.00 Z" />
</svg>
