<?xml version="1.0" encoding="UTF-8" standalone="no"?>
<!DOCTYPE svg PUBLIC "-//W3C//DTD SVG 20010904//EN"
              "http://www.w3.org/TR/2001/REC-SVG-20010904/DTD/svg10.dtd">

<svg xmlns="http://www.w3.org/2000/svg"
     width="5.20833in" height="6.73958in"
     viewBox="0 0 500 647">
  <path id="Auswahl #1"
        fill="none" stroke="black" stroke-width="1"
        d="M 432.00,255.00
           C 432.00,255.00 454.00,255.00 454.00,255.00
             454.00,255.00 454.00,286.00 454.00,286.00
             454.00,286.00 432.00,286.00 432.00,286.00
             432.00,286.00 432.00,255.00 432.00,255.00 Z" />
  <path id="Auswahl #7"
        fill="none" stroke="black" stroke-width="1"
        d="M 158.00,318.00
           C 158.00,318.00 168.00,318.00 168.00,318.00
             168.00,318.00 168.00,331.00 168.00,331.00
             168.00,331.00 158.00,331.00 158.00,331.00
             158.00,331.00 158.00,318.00 158.00,318.00 Z" />
  <path id="Auswahl #6"
        fill="none" stroke="black" stroke-width="1"
        d="M 429.00,286.00
           C 429.00,286.00 435.00,286.00 435.00,286.00
             435.00,286.00 435.00,301.00 435.00,301.00
             435.00,301.00 429.00,301.00 429.00,301.00
             429.00,301.00 429.00,286.00 429.00,286.00 Z" />
  <path id="Auswahl #5"
        fill="none" stroke="black" stroke-width="1"
        d="M 384.00,285.00
           C 384.00,285.00 400.00,285.00 400.00,285.00
             400.00,285.00 400.00,301.00 400.00,301.00
             400.00,301.00 384.00,301.00 384.00,301.00
             384.00,301.00 384.00,285.00 384.00,285.00 Z" />
  <path id="Auswahl #4"
        fill="none" stroke="black" stroke-width="1"
        d="M 323.00,285.00
           C 323.00,285.00 333.00,285.00 333.00,285.00
             333.00,285.00 333.00,300.00 333.00,300.00
             333.00,300.00 323.00,300.00 323.00,300.00
             323.00,300.00 323.00,285.00 323.00,285.00 Z" />
  <path id="Auswahl #3"
        fill="none" stroke="black" stroke-width="1"
        d="M 185.00,285.00
           C 185.00,285.00 195.00,285.00 195.00,285.00
             195.00,285.00 195.00,320.00 195.00,320.00
             195.00,320.00 185.00,320.00 185.00,320.00
             185.00,320.00 185.00,285.00 185.00,285.00 Z" />
  <path id="Auswahl #2"
        fill="none" stroke="black" stroke-width="1"
        d="M 127.00,292.00
           C 127.00,292.00 146.00,292.00 146.00,292.00
             146.00,292.00 146.00,320.00 146.00,320.00
             146.00,320.00 127.00,320.00 127.00,320.00
             127.00,320.00 127.00,292.00 127.00,292.00 Z" />
  <path id="Auswahl"
        fill="none" stroke="black" stroke-width="1"
        d="M 85.00,225.00
           C 85.00,225.00 126.00,225.00 126.00,225.00
             126.00,225.00 126.00,278.00 126.00,278.00
             126.00,278.00 85.00,278.00 85.00,278.00
             85.00,278.00 85.00,225.00 85.00,225.00 Z" />
</svg>
