<?xml version="1.0" encoding="UTF-8" standalone="no"?>
<!DOCTYPE svg PUBLIC "-//W3C//DTD SVG 20010904//EN"
              "http://www.w3.org/TR/2001/REC-SVG-20010904/DTD/svg10.dtd">

<svg xmlns="http://www.w3.org/2000/svg"
     width="267.531mm" height="219.635mm"
     viewBox="0 0 1011 830">
  <path id="Auswahl #4"
        fill="none" stroke="black" stroke-width="1"
        d="M 578.00,640.00
           C 578.00,640.00 738.00,640.00 738.00,640.00
             738.00,640.00 738.00,671.00 738.00,671.00
             738.00,671.00 578.00,671.00 578.00,671.00
             578.00,671.00 578.00,640.00 578.00,640.00 Z" />
  <path id="Auswahl #3"
        fill="none" stroke="black" stroke-width="1"
        d="M 552.00,494.00
           C 552.00,494.00 609.00,494.00 609.00,494.00
             609.00,494.00 609.00,513.00 609.00,513.00
             609.00,513.00 552.00,513.00 552.00,513.00
             552.00,513.00 552.00,494.00 552.00,494.00 Z" />
  <path id="Auswahl #2"
        fill="none" stroke="black" stroke-width="1"
        d="M 551.00,82.00
           C 551.00,82.00 655.00,82.00 655.00,82.00
             655.00,82.00 655.00,114.00 655.00,114.00
             655.00,114.00 551.00,114.00 551.00,114.00
             551.00,114.00 551.00,82.00 551.00,82.00 Z" />
  <path id="Auswahl #1"
        fill="none" stroke="black" stroke-width="1"
        d="M 34.00,351.00
           C 34.00,351.00 84.00,351.00 84.00,351.00
             84.00,351.00 84.00,372.00 84.00,372.00
             84.00,372.00 34.00,372.00 34.00,372.00
             34.00,372.00 34.00,351.00 34.00,351.00 Z" />
  <path id="Auswahl"
        fill="none" stroke="black" stroke-width="1"
        d="M 62.00,79.00
           C 62.00,79.00 130.00,79.00 130.00,79.00
             130.00,79.00 130.00,104.00 130.00,104.00
             130.00,104.00 62.00,104.00 62.00,104.00
             62.00,104.00 62.00,79.00 62.00,79.00 Z" />
</svg>
