<?xml version="1.0" encoding="UTF-8" standalone="no"?>
<!DOCTYPE svg PUBLIC "-//W3C//DTD SVG 20010904//EN"
              "http://www.w3.org/TR/2001/REC-SVG-20010904/DTD/svg10.dtd">

<svg xmlns="http://www.w3.org/2000/svg"
     width="5.20833in" height="6.73958in"
     viewBox="0 0 500 647">
  <path id="Auswahl #4"
        fill="none" stroke="black" stroke-width="1"
        d="M 185.00,285.00
           C 185.00,285.00 195.00,285.00 195.00,285.00
             195.00,285.00 195.00,320.00 195.00,320.00
             195.00,320.00 185.00,320.00 185.00,320.00
             185.00,320.00 185.00,285.00 185.00,285.00 Z" />
  <path id="Auswahl #3"
        fill="none" stroke="black" stroke-width="1"
        d="M 127.00,291.00
           C 127.00,291.00 147.00,291.00 147.00,291.00
             147.00,291.00 147.00,319.00 147.00,319.00
             147.00,319.00 127.00,319.00 127.00,319.00
             127.00,319.00 127.00,291.00 127.00,291.00 Z" />
  <path id="Auswahl #2"
        fill="none" stroke="black" stroke-width="1"
        d="M 395.00,254.00
           C 395.00,254.00 413.00,254.00 413.00,254.00
             413.00,254.00 413.00,286.00 413.00,286.00
             413.00,286.00 395.00,286.00 395.00,286.00
             395.00,286.00 395.00,254.00 395.00,254.00 Z" />
  <path id="Auswahl #1"
        fill="none" stroke="black" stroke-width="1"
        d="M 162.00,245.00
           C 162.00,245.00 197.00,245.00 197.00,245.00
             197.00,245.00 197.00,280.00 197.00,280.00
             197.00,280.00 162.00,280.00 162.00,280.00
             162.00,280.00 162.00,245.00 162.00,245.00 Z" />
  <path id="Auswahl"
        fill="none" stroke="black" stroke-width="1"
        d="M 84.00,224.00
           C 84.00,224.00 124.00,224.00 124.00,224.00
             124.00,224.00 124.00,279.00 124.00,279.00
             124.00,279.00 84.00,279.00 84.00,279.00
             84.00,279.00 84.00,224.00 84.00,224.00 Z" />
</svg>
