<svg xmlns="http://www.w3.org/2000/svg" viewBox="0 0 886 830">
  <path id="Auswahl #4" fill="black" stroke="black" stroke-width="1" d="M 578.00,638.00            C 578.00,638.00 738.00,638.00 738.00,638.00              738.00,638.00 738.00,673.00 738.00,673.00              738.00,673.00 578.00,673.00 578.00,673.00              578.00,673.00 578.00,638.00 578.00,638.00 Z" />
  <path id="Auswahl #3" fill="black" stroke="black" stroke-width="1" d="M 552.00,493.00            C 552.00,493.00 609.00,493.00 609.00,493.00              609.00,493.00 609.00,514.00 609.00,514.00              609.00,514.00 552.00,514.00 552.00,514.00              552.00,514.00 552.00,493.00 552.00,493.00 Z" />
  <path id="Auswahl #2" fill="black" stroke="black" stroke-width="1" d="M 553.00,80.00            C 553.00,80.00 656.00,80.00 656.00,80.00              656.00,80.00 656.00,117.00 656.00,117.00              656.00,117.00 553.00,117.00 553.00,117.00              553.00,117.00 553.00,80.00 553.00,80.00 Z" />
  <path id="Auswahl #1" fill="black" stroke="black" stroke-width="1" d="M 32.00,349.00            C 32.00,349.00 85.00,349.00 85.00,349.00              85.00,349.00 85.00,373.00 85.00,373.00              85.00,373.00 32.00,373.00 32.00,373.00              32.00,373.00 32.00,349.00 32.00,349.00 Z" />
  <path id="Auswahl" fill="black" stroke="black" stroke-width="1" d="M 61.00,77.00            C 61.00,77.00 131.00,77.00 131.00,77.00              131.00,77.00 131.00,105.00 131.00,105.00              131.00,105.00 61.00,105.00 61.00,105.00              61.00,105.00 61.00,77.00 61.00,77.00 Z" />
</svg>