<?xml version="1.0" encoding="UTF-8" standalone="no"?>
<!DOCTYPE svg PUBLIC "-//W3C//DTD SVG 20010904//EN"
              "http://www.w3.org/TR/2001/REC-SVG-20010904/DTD/svg10.dtd">

<svg xmlns="http://www.w3.org/2000/svg"
     width="2.41667in" height="1.6in"
     viewBox="0 0 725 480">
  <path id="Auswahl"
        fill="none" stroke="black" stroke-width="1"
        d="M 88.00,175.00
           C 88.00,175.00 116.00,175.00 116.00,175.00
             116.00,175.00 116.00,212.00 116.00,212.00
             116.00,212.00 88.00,212.00 88.00,212.00
             88.00,212.00 88.00,175.00 88.00,175.00 Z
           M 141.00,189.00
           C 141.00,189.00 164.00,189.00 164.00,189.00
             164.00,189.00 164.00,212.00 164.00,212.00
             164.00,212.00 141.00,212.00 141.00,212.00
             141.00,212.00 141.00,189.00 141.00,189.00 Z
           M 170.00,189.00
           C 170.00,189.00 187.00,189.00 187.00,189.00
             187.00,189.00 187.00,213.00 187.00,213.00
             187.00,213.00 170.00,213.00 170.00,213.00
             170.00,213.00 170.00,189.00 170.00,189.00 Z
           M 260.00,194.00
           C 260.00,194.00 273.00,194.00 273.00,194.00
             273.00,194.00 273.00,215.00 273.00,215.00
             273.00,215.00 260.00,215.00 260.00,215.00
             260.00,215.00 260.00,194.00 260.00,194.00 Z
           M 278.00,194.00
           C 278.00,194.00 298.00,194.00 298.00,194.00
             298.00,194.00 298.00,215.00 298.00,215.00
             298.00,215.00 278.00,215.00 278.00,215.00
             278.00,215.00 278.00,194.00 278.00,194.00 Z
           M 320.00,195.00
           C 320.00,195.00 335.00,195.00 335.00,195.00
             335.00,195.00 335.00,216.00 335.00,216.00
             335.00,216.00 320.00,216.00 320.00,216.00
             320.00,216.00 320.00,195.00 320.00,195.00 Z
           M 102.00,214.00
           C 102.00,214.00 118.00,214.00 118.00,214.00
             118.00,214.00 118.00,238.00 118.00,238.00
             118.00,238.00 102.00,238.00 102.00,238.00
             102.00,238.00 102.00,214.00 102.00,214.00 Z
           M 162.00,216.00
           C 162.00,216.00 170.00,216.00 170.00,216.00
             170.00,216.00 170.00,238.00 170.00,238.00
             170.00,238.00 162.00,238.00 162.00,238.00
             162.00,238.00 162.00,216.00 162.00,216.00 Z
           M 142.00,220.00
           C 142.00,220.00 156.00,220.00 156.00,220.00
             156.00,220.00 156.00,238.00 156.00,238.00
             156.00,238.00 142.00,238.00 142.00,238.00
             142.00,238.00 142.00,220.00 142.00,220.00 Z" />
</svg>
