<?xml version="1.0" encoding="UTF-8" standalone="no"?>
<!DOCTYPE svg PUBLIC "-//W3C//DTD SVG 20010904//EN"
              "http://www.w3.org/TR/2001/REC-SVG-20010904/DTD/svg10.dtd">

<svg xmlns="http://www.w3.org/2000/svg"
     width="714.815mm" height="514.815mm"
     viewBox="0 0 2702 1946">
  <path id="Auswahl #4"
        fill="none" stroke="black" stroke-width="1"
        d="M 1370.00,872.00
           C 1370.00,872.00 1564.00,872.00 1564.00,872.00
             1564.00,872.00 1564.00,983.00 1564.00,983.00
             1564.00,983.00 1370.00,983.00 1370.00,983.00
             1370.00,983.00 1370.00,872.00 1370.00,872.00 Z" />
  <path id="Auswahl #3"
        fill="none" stroke="black" stroke-width="1"
        d="M 1828.00,658.00
           C 1828.00,658.00 1974.00,658.00 1974.00,658.00
             1974.00,658.00 1974.00,778.00 1974.00,778.00
             1974.00,778.00 1828.00,778.00 1828.00,778.00
             1828.00,778.00 1828.00,658.00 1828.00,658.00 Z" />
  <path id="Auswahl #2"
        fill="none" stroke="black" stroke-width="1"
        d="M 1821.00,1675.00
           C 1821.00,1675.00 1902.00,1675.00 1902.00,1675.00
             1902.00,1675.00 1902.00,1718.00 1902.00,1718.00
             1902.00,1718.00 1821.00,1718.00 1821.00,1718.00
             1821.00,1718.00 1821.00,1675.00 1821.00,1675.00 Z" />
  <path id="Auswahl #1"
        fill="none" stroke="black" stroke-width="1"
        d="M 2085.00,1465.00
           C 2085.00,1465.00 2290.00,1465.00 2290.00,1465.00
             2290.00,1465.00 2290.00,1515.00 2290.00,1515.00
             2290.00,1515.00 2085.00,1515.00 2085.00,1515.00
             2085.00,1515.00 2085.00,1465.00 2085.00,1465.00 Z" />
  <path id="Auswahl"
        fill="none" stroke="black" stroke-width="1"
        d="M 2171.00,298.00
           C 2171.00,298.00 2268.00,298.00 2268.00,298.00
             2268.00,298.00 2268.00,342.00 2268.00,342.00
             2268.00,342.00 2171.00,342.00 2171.00,342.00
             2171.00,342.00 2171.00,298.00 2171.00,298.00 Z" />
</svg>
