<?xml version="1.0" encoding="UTF-8" standalone="no"?>
<!DOCTYPE svg PUBLIC "-//W3C//DTD SVG 20010904//EN"
              "http://www.w3.org/TR/2001/REC-SVG-20010904/DTD/svg10.dtd">

<svg xmlns="http://www.w3.org/2000/svg"
     width="714.815mm" height="514.815mm"
     viewBox="0 0 2702 1946">
  <path id="Auswahl #4"
        fill="none" stroke="black" stroke-width="1"
        d="M 705.00,1422.00
           C 705.00,1422.00 939.00,1422.00 939.00,1422.00
             939.00,1422.00 939.00,1515.00 939.00,1515.00
             939.00,1515.00 705.00,1515.00 705.00,1515.00
             705.00,1515.00 705.00,1422.00 705.00,1422.00 Z" />
  <path id="Auswahl #3"
        fill="none" stroke="black" stroke-width="1"
        d="M 471.00,1653.00
           C 471.00,1653.00 546.00,1653.00 546.00,1653.00
             546.00,1653.00 546.00,1725.00 546.00,1725.00
             546.00,1725.00 471.00,1725.00 471.00,1725.00
             471.00,1725.00 471.00,1653.00 471.00,1653.00 Z" />
  <path id="Auswahl #2"
        fill="none" stroke="black" stroke-width="1"
        d="M 804.00,312.00
           C 804.00,312.00 909.00,312.00 909.00,312.00
             909.00,312.00 909.00,375.00 909.00,375.00
             909.00,375.00 804.00,375.00 804.00,375.00
             804.00,375.00 804.00,312.00 804.00,312.00 Z" />
  <path id="Auswahl #1"
        fill="none" stroke="black" stroke-width="1"
        d="M 477.00,675.00
           C 477.00,675.00 612.00,675.00 612.00,675.00
             612.00,675.00 612.00,801.00 612.00,801.00
             612.00,801.00 477.00,801.00 477.00,801.00
             477.00,801.00 477.00,675.00 477.00,675.00 Z" />
  <path id="Auswahl"
        fill="none" stroke="black" stroke-width="1"
        d="M 24.00,858.00
           C 24.00,858.00 210.00,858.00 210.00,858.00
             210.00,858.00 210.00,1017.00 210.00,1017.00
             210.00,1017.00 24.00,1017.00 24.00,1017.00
             24.00,1017.00 24.00,858.00 24.00,858.00 Z" />
</svg>
