<?xml version="1.0" encoding="UTF-8" standalone="no"?>
<svg xmlns="http://www.w3.org/2000/svg"
     xmlns:svg="http://www.w3.org/2000/svg"
     version="1.1"
     width="9.58333in" height="13.875in"
     viewBox="0 0 690 999">
  <path id="Auswahl #4"
        fill="none" stroke="black" stroke-width="1"
        d="M 566.00,82.00
           C 566.00,82.00 574.00,82.00 574.00,82.00
             574.00,82.00 575.00,92.00 575.00,92.00
             575.00,92.00 566.00,93.00 566.00,93.00
             566.00,93.00 566.00,82.00 566.00,82.00 Z" />
  <path id="Auswahl #3"
        fill="none" stroke="black" stroke-width="1"
        d="M 664.06,47.87
           C 675.73,45.25 674.13,59.57 674.00,67.00
             673.93,70.62 673.63,74.10 669.94,75.94
             665.69,78.05 661.14,75.22 659.81,70.98
             659.17,68.95 659.80,53.05 660.60,51.19
             661.49,49.10 662.32,48.94 664.06,47.87 Z" />
  <path id="Auswahl #2"
        fill="none" stroke="black" stroke-width="1"
        d="M 76.00,30.00
           C 78.97,30.00 86.58,29.70 89.00,30.60
             92.84,32.02 97.99,38.77 100.93,42.00
             103.21,44.52 111.11,54.94 114.09,54.96
             116.79,54.97 124.69,47.19 127.00,45.15
             130.64,41.95 141.24,31.94 145.00,30.59
             147.31,29.77 152.37,30.00 155.00,30.00
             155.00,30.00 154.00,53.00 154.00,53.00
             154.00,53.00 154.00,88.00 154.00,88.00
             154.00,88.00 153.04,100.00 153.04,100.00
             153.04,100.00 153.04,115.00 153.04,115.00
             153.04,115.00 119.00,114.00 119.00,114.00
             119.00,114.00 119.00,90.00 119.00,90.00
             119.00,90.00 106.00,105.00 106.00,105.00
             106.00,105.00 104.00,105.00 104.00,105.00
             104.00,105.00 93.00,88.00 93.00,88.00
             93.00,88.00 94.00,113.00 94.00,113.00
             94.00,113.00 74.00,113.00 74.00,113.00
             74.00,113.00 78.00,68.00 78.00,68.00
             78.00,68.00 78.00,56.00 78.00,56.00
             78.00,56.00 77.00,39.00 77.00,39.00
             77.00,39.00 76.00,30.00 76.00,30.00 Z" />
  <path id="Auswahl #1"
        fill="none" stroke="black" stroke-width="1"
        d="M 329.00,809.00
           C 335.92,813.19 336.12,817.54 334.00,825.00
             334.00,825.00 330.02,822.58 330.02,822.58
             330.02,822.58 329.00,809.00 329.00,809.00 Z" />
  <path id="Auswahl"
        fill="none" stroke="black" stroke-width="1"
        d="M 331.00,313.00
           C 336.99,316.37 342.02,318.12 349.00,316.47
             353.79,315.34 353.78,313.85 360.00,313.00
             356.12,320.72 348.56,320.09 341.00,320.00
             338.50,319.97 334.66,320.02 332.74,318.18
             331.23,316.73 331.23,314.91 331.00,313.00 Z" />
</svg>
